<?xml version="1.0" encoding="UTF-8"?>
<svg xmlns="http://www.w3.org/2000/svg" xmlns:xlink="http://www.w3.org/1999/xlink" width="20pt" height="20pt" viewBox="0 0 20 20" version="1.1">
<g id="surface1">
<path style=" stroke:none;fill-rule:nonzero;fill:rgb(0%,0%,0%);fill-opacity:1;" d="M 4.308594 1.175781 C 4.15625 1.175781 4.023438 1.257812 3.957031 1.394531 C 3.890625 1.523438 3.90625 1.683594 3.992188 1.800781 L 5.089844 3.265625 L 5.089844 16.316406 L 3.601562 17.777344 C 3.511719 17.898438 3.5 18.054688 3.566406 18.191406 C 3.632812 18.320312 3.765625 18.40625 3.917969 18.40625 L 15.273438 18.40625 C 15.390625 18.40625 15.503906 18.351562 15.578125 18.257812 L 17.535156 16.300781 C 17.628906 16.183594 17.648438 16.023438 17.582031 15.886719 C 17.519531 15.75 17.382812 15.664062 17.230469 15.664062 L 9.007812 15.664062 L 9.007812 1.566406 C 9.007812 1.347656 8.832031 1.175781 8.613281 1.175781 Z M 9.792969 2.742188 L 9.792969 3.523438 C 13.675781 3.523438 16.839844 6.6875 16.839844 10.574219 C 16.839844 12.195312 16.28125 13.6875 15.359375 14.878906 L 16.324219 14.878906 C 17.140625 13.644531 17.621094 12.164062 17.621094 10.574219 C 17.621094 6.253906 14.109375 2.742188 9.792969 2.742188 Z M 9.792969 4.308594 L 9.792969 14.878906 L 14.328125 14.878906 C 15.394531 13.757812 16.058594 12.242188 16.058594 10.574219 C 16.058594 7.117188 13.246094 4.308594 9.792969 4.308594 Z M 4.308594 4.988281 C 2.953125 6.316406 2.078125 8.132812 1.972656 10.144531 C 1.964844 10.289062 1.957031 10.429688 1.957031 10.574219 C 1.957031 10.804688 1.96875 11.03125 1.988281 11.257812 C 2.15625 13.171875 3.011719 14.886719 4.308594 16.160156 L 4.308594 14.992188 C 3.332031 13.78125 2.742188 12.246094 2.742188 10.574219 C 2.742188 8.898438 3.332031 7.363281 4.308594 6.15625 Z M 4.308594 7.546875 C 3.8125 8.445312 3.523438 9.476562 3.523438 10.574219 C 3.523438 11.667969 3.8125 12.699219 4.308594 13.601562 Z M 4.308594 7.546875 "/>
</g>
</svg>
